<?xml version="1.0" encoding="utf-8"?>
<!-- Generator: Adobe Illustrator 21.1.0, SVG Export Plug-In . SVG Version: 6.00 Build 0)  -->
<svg version="1.1" id="Layer_1" xmlns="http://www.w3.org/2000/svg" xmlns:xlink="http://www.w3.org/1999/xlink" x="0px" y="0px"
	 viewBox="0 0 841.9 355" style="enable-background:new 0 0 841.9 355;" xml:space="preserve">
<style type="text/css">
	.st0{display:none;fill:#CCCCCC;}
	.st1{display:none;fill:#FFFFFF;stroke:#000000;stroke-miterlimit:10;}
	.st2{display:none;}
	.st3{display:inline;}
</style>
<g>
	<rect x="76.4" y="36.8" class="st0" width="689.1" height="281.3"/>
	<g>
		<g>
			<path d="M303.8,68.3c6.2-3.4,14-1.1,17.4,5.1c3.4,6.2,1.1,14-5.1,17.4s-14,1.1-17.4-5.1C295.3,79.4,297.6,71.7,303.8,68.3z"/>
			<g>
				<g>
					<g>
						<path d="M302.2,117.4c-0.9,0-1.8-0.4-2.5-1c-0.6-0.6-1-1.5-1-2.4s0.4-1.8,1-2.4c1.3-1.3,3.6-1.3,4.9,0c0.6,0.6,1,1.5,1,2.4
							s-0.4,1.8-1,2.4S303.1,117.4,302.2,117.4z"/>
					</g>
					<g>
						<path d="M159.4,226.8c-1.7-0.9-2.4-2.9-1.6-4.6l0,0c0.8-1.7,2.9-2.4,4.6-1.5l0,0c1.7,0.8,2.4,2.9,1.6,4.6l0,0l0,0l0,0
							c-0.6,1.2-1.8,1.9-3.1,1.9l0,0C160.4,227.2,159.9,227.1,159.4,226.8z M166.4,214.4c-1.6-1.1-1.9-3.3-0.8-4.8l0,0
							c1.1-1.5,3.3-1.9,4.8-0.8l0,0c1.5,1.1,1.9,3.3,0.8,4.8l0,0l0,0l0,0c-0.7,0.9-1.7,1.4-2.8,1.4l0,0
							C167.7,215.1,167,214.9,166.4,214.4z M175,203.1c-1.4-1.2-1.6-3.4-0.4-4.9l0,0c1.2-1.5,3.4-1.7,4.9-0.4l0,0
							c1.5,1.2,1.7,3.4,0.4,4.9l0,0c-0.7,0.8-1.7,1.2-2.6,1.2l0,0C176.4,203.9,175.6,203.6,175,203.1z M184.3,192.3
							c-1.4-1.3-1.5-3.5-0.2-4.9l0,0c1.3-1.4,3.5-1.5,4.9-0.2l0,0c1.4,1.3,1.5,3.5,0.2,4.9l0,0c-0.7,0.7-1.6,1.1-2.5,1.1l0,0
							C185.8,193.2,185,192.9,184.3,192.3z M194.1,182c-1.4-1.3-1.3-3.5,0-4.9l0,0c1.4-1.3,3.5-1.3,4.9,0l0,0c1.3,1.4,1.3,3.5,0,4.9
							l0,0c-0.7,0.7-1.5,1-2.4,1l0,0C195.7,183,194.8,182.7,194.1,182z M204.4,172.1c-1.3-1.4-1.2-3.6,0.2-4.9l0,0
							c1.4-1.3,3.6-1.2,4.9,0.2l0,0c1.3,1.4,1.2,3.6-0.2,4.9l0,0c-0.7,0.6-1.5,0.9-2.3,0.9l0,0C206,173.2,205.1,172.8,204.4,172.1z
							 M214.9,162.5c-1.2-1.4-1.1-3.6,0.4-4.9l0,0c1.4-1.2,3.6-1.1,4.9,0.4l0,0c1.2,1.5,1.1,3.6-0.3,4.9l0,0
							c-0.7,0.6-1.5,0.8-2.3,0.8l0,0C216.6,163.7,215.6,163.3,214.9,162.5z M225.8,153.3c-1.2-1.5-1-3.7,0.5-4.9l0,0
							c1.5-1.2,3.7-1,4.9,0.5l0,0c1.2,1.5,1,3.6-0.5,4.9l0,0c-0.6,0.5-1.4,0.8-2.2,0.8l0,0C227.5,154.6,226.5,154.2,225.8,153.3z
							 M237,144.5c-1.2-1.5-0.9-3.7,0.7-4.8l0,0c1.5-1.2,3.7-0.9,4.8,0.7l0,0c1.2,1.5,0.9,3.7-0.7,4.8l0,0c-0.6,0.5-1.4,0.7-2.1,0.7
							l0,0C238.7,145.9,237.6,145.4,237,144.5z M248.4,136.1c-1.1-1.6-0.7-3.7,0.9-4.8l0,0c1.6-1.1,3.7-0.7,4.8,0.9l0,0
							c1.1,1.6,0.7,3.7-0.9,4.8l0,0c-0.6,0.4-1.3,0.6-2,0.6l0,0C250.2,137.6,249.1,137,248.4,136.1z M260.2,128.1
							c-1-1.6-0.5-3.8,1.1-4.7l0,0c1.6-1,3.8-0.5,4.8,1.1l0,0c1,1.6,0.5,3.8-1.1,4.7l0,0c-0.6,0.3-1.2,0.5-1.8,0.5l0,0
							C262,129.7,260.9,129.2,260.2,128.1z M272.5,120.9c-0.9-1.7-0.2-3.8,1.5-4.6l0,0c1.7-0.9,3.8-0.2,4.6,1.5l0,0
							c0.9,1.7,0.2,3.8-1.5,4.6l0,0c-0.5,0.3-1.1,0.4-1.6,0.4l0,0C274.3,122.7,273.1,122,272.5,120.9z M285.3,114.7
							c-0.6-1.8,0.4-3.8,2.2-4.3l0,0c1.8-0.6,3.8,0.4,4.4,2.2l0,0c0.6,1.8-0.4,3.8-2.2,4.3l0,0l0,0l0,0c-0.3,0.1-0.7,0.2-1.1,0.2
							l0,0C287.2,117.1,285.8,116.2,285.3,114.7z"/>
					</g>
					<g>
						<path d="M159.2,240.6c-0.9,0-1.8-0.4-2.4-1c-0.6-0.6-1-1.5-1-2.5c0-0.9,0.4-1.8,1-2.4c1.3-1.3,3.6-1.3,4.9,0
							c0.6,0.6,1,1.5,1,2.4s-0.4,1.8-1,2.4C161,240.3,160.1,240.6,159.2,240.6z"/>
					</g>
				</g>
			</g>
			<path d="M169.6,238.5c-0.6-1.8,0.4-3.8,2.2-4.4l0,0l0,0l0,0c1.8-0.6,3.8,0.4,4.3,2.3l0,0c0.6,1.8-0.4,3.8-2.2,4.3l0,0
				c-0.3,0.1-0.7,0.2-1.1,0.2l0,0C171.5,240.9,170.1,239.9,169.6,238.5z M182.9,233.3c-0.9-1.7-0.2-3.8,1.5-4.6l0,0
				c1.7-0.9,3.8-0.2,4.7,1.5l0,0c0.9,1.7,0.2,3.8-1.5,4.6l0,0c-0.5,0.3-1,0.4-1.6,0.4l0,0C184.7,235.2,183.5,234.5,182.9,233.3z
				 M195.4,226.6c-1-1.6-0.5-3.8,1.1-4.7l0,0c1.6-1,3.7-0.5,4.7,1.1l0,0c1,1.6,0.5,3.8-1.1,4.7l0,0c-0.6,0.3-1.2,0.5-1.8,0.5l0,0
				C197.2,228.2,196.1,227.6,195.4,226.6z M272.5,163.8c-1.4-1.3-1.4-3.5-0.2-4.9l0,0c1.3-1.4,3.5-1.5,4.9-0.2l0,0
				c1.4,1.3,1.5,3.5,0.2,4.9l0,0c-0.7,0.7-1.6,1.1-2.5,1.1l0,0C274,164.7,273.2,164.4,272.5,163.8z M282.1,153.3
				c-1.4-1.2-1.6-3.4-0.4-4.9l0,0c1.2-1.5,3.4-1.7,4.9-0.4l0,0c1.4,1.2,1.6,3.4,0.4,4.9l0,0c-0.7,0.8-1.7,1.2-2.6,1.2l0,0
				C283.6,154.1,282.8,153.8,282.1,153.3z M291.1,142.2c-1.5-1.1-1.9-3.3-0.8-4.8l0,0c1.1-1.5,3.3-1.9,4.8-0.8l0,0
				c1.5,1.1,1.9,3.3,0.8,4.8l0,0c-0.7,0.9-1.7,1.4-2.8,1.4l0,0C292.4,142.9,291.7,142.7,291.1,142.2z M299.1,130.4
				c-1.7-0.8-2.4-2.9-1.5-4.6l0,0l0,0l0,0c0.8-1.7,2.9-2.4,4.6-1.5l0,0c1.7,0.8,2.4,2.9,1.6,4.6l0,0c-0.6,1.2-1.8,1.9-3.1,1.9l0,0
				C300.1,130.8,299.6,130.7,299.1,130.4z"/>
			<path d="M271.5,178.8c0,0-1.2-7.7-1.3-14.3c-0.3-6.9,0.4-12.7,0-14.3c-1.4-2.4-10.3-7.1-9.9-7.9c0,0-4.1-0.2-9.6-1.7
				c-5.5-1.3-12.8-4.1-18.1-4.8c-9-1.8-52,0.7-52.7,1.3c0.1,0-8.9,3.1-16.2,7.7c-7.6,4.5-13,10.3-12.5,13.7
				c1.1,6.2,24.4,30.4,23.5,31.1c-0.1,0.1,7.8,6,15.4,14.3c7.8,8.1,15.6,18.6,20.1,23.3c4.5,4.5,14,11.5,22.1,16.8
				c8.2,5.4,15.1,8.9,15,8.9c-0.1-0.1,6.2-0.8,11.9-4.9c5.8-3.8,10.7-11.3,11.6-17.3c1.2-5.9,0.4-19.8,0.3-31.3
				C271,187.7,271.5,178.8,271.5,178.8z M212.2,219.8c-0.6,0.4-1.3,0.6-2,0.6c-1.1,0-2.2-0.5-2.8-1.5c-1.1-1.6-0.7-3.7,0.9-4.8
				c1.6-1.1,3.7-0.7,4.8,0.9C214.2,216.6,213.8,218.7,212.2,219.8z M223.9,211.4c-0.6,0.5-1.4,0.7-2.1,0.7c-1.1,0-2.1-0.5-2.8-1.4
				c-1.2-1.5-0.9-3.7,0.7-4.8c1.5-1.2,3.7-0.8,4.8,0.7C225.7,208.1,225.4,210.2,223.9,211.4z M235.2,202.6c-0.6,0.5-1.4,0.8-2.2,0.8
				c-1,0-2-0.4-2.7-1.3c-1.2-1.5-1-3.7,0.5-4.9s3.7-1,4.9,0.5C237,199.2,236.7,201.4,235.2,202.6z M246.3,193.4
				c-0.6,0.6-1.4,0.9-2.3,0.9c-1,0-1.9-0.4-2.6-1.2c-1.2-1.5-1.1-3.6,0.4-4.9c1.4-1.2,3.6-1.1,4.9,0.4
				C247.8,190,247.7,192.1,246.3,193.4z M257,183.8c-0.7,0.6-1.5,0.9-2.3,0.9c-0.9,0-1.9-0.4-2.5-1.1c-1.3-1.4-1.2-3.6,0.2-4.9
				c1.4-1.3,3.6-1.2,4.9,0.2C258.4,180.4,258.4,182.5,257,183.8z M267.4,173.9c-0.7,0.6-1.5,1-2.4,1s-1.8-0.3-2.5-1
				c-1.3-1.4-1.3-3.5,0-4.9c1.4-1.3,3.5-1.3,4.9,0C268.7,170.4,268.7,172.6,267.4,173.9z"/>
		</g>
		<g>
			<path d="M326.5,121h9.2v13.5v4.6c3.8-4.7,9.3-6,12.8-6c9.1,0,19.2,6.7,19.2,20.2c0,13-9.1,20.6-19.6,20.6c-6,0-10.7-2.9-12.7-6.7
				v5.5h-8.8V121z M358.5,153.5c0-6.3-4.8-11.8-11.6-11.8c-7.1,0-11.6,5.6-11.6,11.8c0,6.4,4.5,11.9,11.4,11.9
				C354.3,165.4,358.5,159.5,358.5,153.5L358.5,153.5z"/>
			<path d="M374.4,153.5c0-9.8,7.2-20.2,20.6-20.2c13.4,0,20.6,10.4,20.6,20.3c0,9.9-7.2,20.4-20.6,20.4
				C381.6,173.9,374.4,163.5,374.4,153.5L374.4,153.5z M383.6,153.6c0,6.7,5.1,11.7,11.4,11.7s11.3-5,11.3-11.8
				c0-6.8-5-11.8-11.3-11.8S383.6,146.8,383.6,153.6L383.6,153.6z"/>
			<path d="M424.4,134.4h8.6c0,1.7,0,3.3-0.1,5.1c1.7-3,5.1-6.4,12-6.3c12.5,0.1,14.9,9.7,14.9,16.5v23.2h-9.2v-20.9
				c0-5.7-1.9-10.2-8.3-10.2c-6.5,0.1-8.8,4.4-8.8,9.8v21.2h-9.2V134.4z"/>
			<path d="M481.4,172.1c0,8.1-1.3,14.7-13,15.1H466v-7.1h1.3c4.6-0.4,4.8-3.9,4.8-7.7v-38h9.2V172.1z M472.2,121h9.2v8.2h-9.2V121z
				"/>
			<path d="M490.9,153.5c0-9.8,7.2-20.2,20.6-20.2s20.6,10.4,20.6,20.3c0,9.9-7.2,20.4-20.6,20.4S490.9,163.5,490.9,153.5
				L490.9,153.5z M500.1,153.6c0,6.7,5.1,11.7,11.4,11.7s11.3-5,11.3-11.8c0-6.8-5-11.8-11.3-11.8S500.1,146.8,500.1,153.6
				L500.1,153.6z"/>
			<path d="M576.3,172.8h-8.6v-5.1c-1.6,3-5,6.4-12,6.3c-12.6-0.1-15-9.7-15-16.4v-23.2h9.2v20.9c0,5.7,1.9,10.2,8.4,10.1
				c6.6,0,8.8-4.3,8.8-9.8v-21.2h9.2V172.8z"/>
			<path d="M587.1,134.4h8.7v5c1.7-3.4,4.8-6.2,10.6-6.2v9.2H606c-6.4,0-9.7,3-9.7,9.7v20.7h-9.2V134.4z"/>
			<path d="M612.3,178.3h-7.7l4.5-15.8h9.6L612.3,178.3z"/>
		</g>
		<g>
			<path d="M440.8,223.8c-2.2,8.5-9.8,15.2-19.7,15.2c-12.2,0-20.6-9.5-20.6-20.4c0-11.3,8.8-20.4,20.2-20.4
				c9.7,0,17.9,6.1,20.1,15.5h-9.4c-1.6-4.1-5.3-6.9-10.4-6.9c-3.4-0.1-6,1.1-8.2,3.3c-2,2.1-3.2,5.2-3.2,8.5
				c0,6.9,4.8,11.8,11.3,11.8c5.7,0,9-3.4,10.4-6.6H440.8z"/>
			<path d="M489,237.8h-9.2v-5.5c-2.5,4.5-7.6,6.7-13,6.7c-12.3,0-19.5-9.6-19.5-20.4c0-12.1,8.8-20.4,19.5-20.4
				c7,0,11.3,3.7,13,6.8v-5.6h9.2V237.8z M456.5,218.8c0,4.8,3.4,11.7,11.7,11.7c5.1,0,8.5-2.7,10.2-6.2c0.9-1.7,1.3-3.5,1.5-5.4
				c0.1-1.8-0.3-3.7-1.1-5.4c-1.6-3.6-5.2-6.8-10.7-6.8C460.7,206.7,456.5,212.7,456.5,218.8L456.5,218.8z"/>
			<path d="M499.8,199.4h8.6v5.6c2.7-3.9,7.2-6.8,13.6-6.8c13.4,0,19.1,11.4,19.1,20.7c0,10.9-7.8,20.1-19,20.1
				c-7.5,0-11.6-3.9-13.1-6.3v5.1v13.4h-9.2V199.4z M532,218.5c0-5.5-4-11.8-11.8-11.8c-3.4,0-6.2,1.3-8.3,3.5
				c-2,2.1-3.3,5.1-3.3,8.5c0,3.3,1.3,6.2,3.4,8.3c2.1,2.1,5,3.4,8.3,3.4C527.3,230.4,532,224.9,532,218.5L532,218.5z"/>
			<path d="M566.7,209.7c-0.1-2-1.1-4.1-4.7-4.1c-3.1,0-4.6,2-4.6,3.9c0.1,2.5,2.9,3.8,6.5,4.8c6.2,1.7,12.8,3.5,12.9,11.8
				c0.1,7.9-6.5,13-14.6,13c-6,0-14-3.1-14.7-12.4h9.2c0.4,4.1,3.9,5,5.7,5c2.9,0,5.3-1.9,5.2-4.5c0-3.3-2.9-4.2-9.9-6.7
				c-5.2-1.6-9.4-4.5-9.5-10c0-7.6,6.4-12.3,13.8-12.3c5.2,0,12.9,2.3,13.7,11.6H566.7z"/>
			<path d="M620.9,237.8h-8.6v-5.1c-1.6,3-5,6.4-12,6.3c-12.6-0.1-15-9.7-15-16.4v-23.2h9.2v20.9c0,5.7,1.9,10.2,8.4,10.1
				c6.6,0,8.8-4.3,8.8-9.8v-21.2h9.2V237.8z"/>
			<path d="M631.7,186h9.2v51.8h-9.2V186z"/>
			<path d="M658.4,221.6c0.4,6.2,5.9,9.6,11.1,9.5c4.5,0,7.5-2,9.2-5.2h9.5c-1.8,4.3-4.5,7.5-7.8,9.7c-3.2,2.2-7,3.4-11,3.4
				c-11.8,0-20.3-9.6-20.3-20.3c0-10.9,8.5-20.5,20.2-20.5c5.7,0,10.8,2.2,14.4,5.9c4.7,4.8,6.4,10.9,5.7,17.6H658.4z M680.4,214.6
				c-0.4-3.6-4.2-8.8-10.9-8.7c-6.8,0-10.5,4.9-10.9,8.7H680.4z"/>
		</g>
	</g>
</g>
<line class="st1" x1="118.4" y1="238.6" x2="371.1" y2="17.7"/>
<line class="st1" x1="500.1" y1="238.6" x2="247.4" y2="17.7"/>
<text transform="matrix(1 0 0 1 203.1239 -255.2991)" class="st2"><tspan x="0" y="0" class="st3" style="font-family:'ITCAvantGardeStd-Demi'; font-size:70px; letter-spacing:1;">bonjour,</tspan><tspan x="0" y="65" class="st3" style="font-family:'ITCAvantGardeStd-Demi'; font-size:70px; letter-spacing:1;">capsule</tspan></text>
<path class="st2" d="M387.5,135c6.2-3.4,14-1.1,17.4,5.1c3.4,6.2,1.1,14-5.1,17.4c-6.2,3.4-14,1.1-17.4-5.1
	C379,146.1,381.3,138.4,387.5,135z"/>
<path class="st2" d="M461.2,199.7c6.2-3.4,14-1.1,17.4,5.1c3.4,6.2,1.1,14-5.1,17.4c-6.2,3.4-14,1.1-17.4-5.1
	C452.7,210.8,455,203.1,461.2,199.7z"/>
</svg>
