<?xml version="1.0" encoding="utf-8"?>
<!-- Generator: Adobe Illustrator 21.1.0, SVG Export Plug-In . SVG Version: 6.00 Build 0)  -->
<svg version="1.1" id="Layer_1" xmlns="http://www.w3.org/2000/svg" xmlns:xlink="http://www.w3.org/1999/xlink" x="0px" y="0px"
	 viewBox="0 0 222 222" style="enable-background:new 0 0 222 222;" xml:space="preserve">
<style type="text/css">
	.st0{fill:#FFFFFF;}
</style>
<g>
	<g>
		<g>
			<g>
				<path class="st0" d="M185.9,51.9c-0.9,0-1.8-0.4-2.5-1c-0.6-0.6-1-1.5-1-2.4s0.4-1.8,1-2.4c1.3-1.3,3.6-1.3,4.9,0
					c0.6,0.6,1,1.5,1,2.4s-0.4,1.8-1,2.4C187.7,51.6,186.8,51.9,185.9,51.9z"/>
			</g>
			<g>
				<path class="st0" d="M43.1,161.4c-1.7-0.9-2.4-2.9-1.6-4.6l0,0c0.8-1.7,2.9-2.4,4.6-1.5l0,0c1.7,0.8,2.4,2.9,1.6,4.6l0,0l0,0
					l0,0c-0.6,1.2-1.8,1.9-3.1,1.9l0,0C44.1,161.7,43.6,161.6,43.1,161.4z M50.1,149c-1.6-1.1-1.9-3.3-0.8-4.8l0,0
					c1.1-1.5,3.3-1.9,4.8-0.8l0,0c1.5,1.1,1.9,3.3,0.8,4.8l0,0l0,0l0,0c-0.7,0.9-1.7,1.4-2.8,1.4l0,0
					C51.4,149.6,50.7,149.4,50.1,149z M58.7,137.6c-1.4-1.2-1.6-3.4-0.4-4.9l0,0c1.2-1.5,3.4-1.7,4.9-0.4l0,0
					c1.5,1.2,1.7,3.4,0.4,4.9l0,0c-0.7,0.8-1.7,1.2-2.6,1.2l0,0C60.1,138.4,59.3,138.2,58.7,137.6z M68,126.9
					c-1.4-1.3-1.5-3.5-0.2-4.9l0,0c1.3-1.4,3.5-1.5,4.9-0.2l0,0c1.4,1.3,1.5,3.5,0.2,4.9l0,0c-0.7,0.7-1.6,1.1-2.5,1.1l0,0
					C69.5,127.8,68.7,127.5,68,126.9z M77.9,116.5c-1.4-1.3-1.3-3.5,0-4.9l0,0c1.4-1.3,3.5-1.3,4.9,0l0,0c1.3,1.4,1.3,3.5,0,4.9l0,0
					c-0.7,0.7-1.5,1-2.4,1l0,0C79.4,117.6,78.5,117.2,77.9,116.5z M88.1,106.6c-1.3-1.4-1.2-3.6,0.2-4.9l0,0
					c1.4-1.3,3.6-1.2,4.9,0.2l0,0c1.3,1.4,1.2,3.6-0.2,4.9l0,0c-0.7,0.6-1.5,0.9-2.3,0.9l0,0C89.7,107.7,88.8,107.4,88.1,106.6z
					 M98.6,97.1c-1.2-1.4-1.1-3.6,0.4-4.9l0,0c1.4-1.2,3.6-1.1,4.9,0.4l0,0c1.2,1.4,1.1,3.6-0.3,4.9l0,0c-0.7,0.6-1.5,0.8-2.3,0.8
					l0,0C100.3,98.3,99.3,97.9,98.6,97.1z M109.5,87.9c-1.2-1.5-1-3.7,0.5-4.9l0,0c1.5-1.2,3.7-1,4.9,0.5l0,0c1.2,1.5,1,3.6-0.5,4.9
					l0,0c-0.6,0.5-1.4,0.8-2.2,0.8l0,0C111.2,89.2,110.2,88.7,109.5,87.9z M120.7,79c-1.2-1.5-0.9-3.7,0.7-4.8l0,0
					c1.5-1.2,3.7-0.9,4.8,0.7l0,0c1.2,1.5,0.9,3.7-0.7,4.8l0,0c-0.6,0.5-1.4,0.7-2.1,0.7l0,0C122.4,80.4,121.3,79.9,120.7,79z
					 M132.1,70.6c-1.1-1.6-0.7-3.7,0.9-4.8l0,0c1.6-1.1,3.7-0.7,4.8,0.9l0,0c1.1,1.6,0.7,3.7-0.9,4.8l0,0c-0.6,0.4-1.3,0.6-2,0.6
					l0,0C133.9,72.1,132.8,71.6,132.1,70.6z M143.9,62.7c-1-1.6-0.5-3.8,1.1-4.7l0,0c1.6-1,3.8-0.5,4.8,1.1l0,0
					c1,1.6,0.5,3.8-1.1,4.7l0,0c-0.6,0.3-1.2,0.5-1.8,0.5l0,0C145.7,64.3,144.6,63.7,143.9,62.7z M156.2,55.4
					c-0.9-1.7-0.2-3.8,1.5-4.7l0,0c1.7-0.9,3.8-0.2,4.6,1.5l0,0c0.9,1.7,0.2,3.8-1.5,4.6l0,0c-0.5,0.3-1.1,0.4-1.6,0.4l0,0
					C158,57.3,156.8,56.6,156.2,55.4z M169.1,49.3c-0.6-1.8,0.4-3.8,2.2-4.3l0,0c1.8-0.6,3.8,0.4,4.4,2.2l0,0
					c0.6,1.8-0.4,3.8-2.2,4.3l0,0l0,0l0,0c-0.3,0.1-0.7,0.2-1.1,0.2l0,0C170.9,51.7,169.5,50.7,169.1,49.3z"/>
			</g>
			<g>
				<path class="st0" d="M42.9,175.2c-0.9,0-1.8-0.4-2.4-1s-1-1.5-1-2.5c0-0.9,0.4-1.8,1-2.4c1.3-1.3,3.6-1.3,4.9,0
					c0.6,0.6,1,1.5,1,2.4s-0.4,1.8-1,2.4C44.7,174.8,43.8,175.2,42.9,175.2z"/>
			</g>
		</g>
	</g>
	<path class="st0" d="M53.3,173c-0.6-1.8,0.4-3.8,2.2-4.4l0,0l0,0l0,0c1.8-0.6,3.8,0.4,4.3,2.3l0,0c0.6,1.8-0.4,3.8-2.2,4.3l0,0
		c-0.3,0.1-0.7,0.2-1.1,0.2l0,0C55.2,175.4,53.8,174.5,53.3,173z M66.6,167.9c-0.9-1.7-0.2-3.8,1.5-4.6l0,0c1.7-0.9,3.8-0.2,4.7,1.5
		l0,0c0.9,1.7,0.2,3.8-1.5,4.6l0,0c-0.5,0.3-1,0.4-1.6,0.4l0,0C68.4,169.8,67.2,169.1,66.6,167.9z M79.1,161.1
		c-1-1.6-0.5-3.8,1.1-4.7l0,0c1.6-1,3.7-0.5,4.7,1.1l0,0c1,1.6,0.5,3.8-1.1,4.7l0,0c-0.6,0.3-1.2,0.5-1.8,0.5l0,0
		C80.9,162.7,79.8,162.2,79.1,161.1z M156.2,98.3c-1.4-1.3-1.4-3.5-0.2-4.9l0,0c1.3-1.4,3.5-1.5,4.9-0.2l0,0
		c1.4,1.3,1.5,3.5,0.2,4.9l0,0c-0.7,0.7-1.6,1.1-2.5,1.1l0,0C157.8,99.3,156.9,99,156.2,98.3z M165.8,87.8c-1.4-1.2-1.6-3.4-0.4-4.9
		l0,0c1.2-1.5,3.4-1.7,4.9-0.4l0,0c1.4,1.2,1.6,3.4,0.4,4.9l0,0c-0.7,0.8-1.7,1.2-2.6,1.2l0,0C167.3,88.6,166.5,88.4,165.8,87.8z
		 M174.8,76.8c-1.5-1.1-1.9-3.3-0.8-4.8l0,0c1.1-1.5,3.3-1.9,4.8-0.8l0,0c1.5,1.1,1.9,3.3,0.8,4.8l0,0c-0.7,0.9-1.7,1.4-2.8,1.4l0,0
		C176.1,77.4,175.4,77.2,174.8,76.8z M182.8,65c-1.7-0.8-2.4-2.9-1.5-4.6l0,0l0,0l0,0c0.8-1.7,2.9-2.4,4.6-1.5l0,0
		c1.7,0.8,2.4,2.9,1.6,4.6l0,0c-0.6,1.2-1.8,1.9-3.1,1.9l0,0C183.8,65.3,183.3,65.2,182.8,65z"/>
	<path class="st0" d="M155.3,113.4c0,0-1.2-7.7-1.3-14.3c-0.3-6.9,0.4-12.7,0-14.3c-1.4-2.4-10.3-7.1-9.9-7.9c0,0-4.1-0.2-9.6-1.7
		c-5.5-1.3-12.8-4.1-18.1-4.8c-9-1.8-52,0.7-52.7,1.3c0.1,0-8.9,3.1-16.2,7.7c-7.6,4.5-13,10.3-12.5,13.7
		c1.1,6.2,24.4,30.4,23.5,31.1c-0.1,0.1,7.8,6,15.4,14.3c7.8,8.1,15.6,18.6,20.1,23.3c4.5,4.5,14,11.5,22.1,16.8
		c8.2,5.4,15.1,8.9,15,8.9c-0.1-0.1,6.2-0.8,11.9-4.9c5.8-3.8,10.7-11.3,11.6-17.3c1.2-5.9,0.4-19.8,0.3-31.3
		C154.7,122.3,155.2,113.4,155.3,113.4z"/>
</g>
</svg>
